<svg id="Capa_1" enable-background="new 0 0 512 512" height="512" viewBox="0 0 512 512" width="512" xmlns="http://www.w3.org/2000/svg"><g><path d="m243.886 286c14.575-.645 33.047-3.633 60.513-9.976 14.59-3.354 27.554-4.995 39.683-5.024 3.88 0 7.375.694 11.067 1.002-11.365-26.994-38.074-46.002-69.149-46.002-36.379 0-66.744 26.06-73.531 60.48 2.018-.135 3.986-.48 6.031-.48z"/><path d="m344.174 301c-9.959.033-20.63 1.41-33.023 4.248-30.562 7.068-50.27 10.027-67.271 10.752h-25.38c-26.646 0-49.233 17.368-57.061 41.402-3.016 9.258 4.854 18.598 14.592 18.598h124.969v30h-116.206c-33.069.408-37.18.773-75.443-30.19-9.32-7.538-20.836-16.97-35.881-28.759-19.653-15.395-49.241-14.731-64.97 4.656-.105.129-8.5 10.611-8.5 10.611l9.023 9.492c116.616 122.476 237.001 111.328 316.864 92.285 41.938-9.99 76.483 5.292 115.375 21.845 50.217 21.367 50.538 19.159 70.738 26.06v-145.814c-9.113-4.118-21.806-8.93-76.553-35.039-39.598-18.881-63.076-30.24-91.273-30.147z"/><path d="m186.112 47.904c-41.938 9.99-76.483-5.292-115.375-21.845-50.216-21.366-50.537-19.158-70.737-26.059v145.814c9.113 4.118 21.806 8.93 76.553 35.039 39.598 18.878 63.076 30.24 91.273 30.146 9.959-.033 20.63-1.412 33.023-4.248 30.562-7.068 50.27-10.027 67.271-10.752h25.38c26.646 0 49.233-17.369 57.061-41.402 3.016-9.258-4.854-18.598-14.592-18.598h-124.969v-30h116.206c33.069-.408 36.18-.773 74.443 30.19 9.32 7.538 21.836 16.97 36.881 28.759 19.653 15.396 49.241 14.731 64.969-4.656.104-.128 8.5-10.611 8.5-10.611l-9.023-9.492c-116.616-122.475-237-111.328-316.864-92.285z"/></g></svg>